<svg xmlns="http://www.w3.org/2000/svg"  viewBox="0 0 100 100" width="48px" height="48px"><path fill="#c7ede6" d="M87.215,56.71C88.35,54.555,89,52.105,89,49.5c0-6.621-4.159-12.257-10.001-14.478 C78.999,35.015,79,35.008,79,35c0-11.598-9.402-21-21-21c-9.784,0-17.981,6.701-20.313,15.757C36.211,29.272,34.638,29,33,29 c-7.692,0-14.023,5.793-14.89,13.252C12.906,43.353,9,47.969,9,53.5C9,59.851,14.149,65,20.5,65c0.177,0,0.352-0.012,0.526-0.022 C21.022,65.153,21,65.324,21,65.5C21,76.822,30.178,86,41.5,86c6.437,0,12.175-2.972,15.934-7.614C59.612,80.611,62.64,82,66,82 c4.65,0,8.674-2.65,10.666-6.518C77.718,75.817,78.837,76,80,76c6.075,0,11-4.925,11-11C91,61.689,89.53,58.727,87.215,56.71z"/><path fill="#fdfcef" d="M71,72h-5.75c-2.485,0.75-4.5-1.265-4.5-3.75c0-2.333,1.782-4.229,4.055-4.455 c-0.022-0.181-0.055-0.358-0.055-0.545c0-2.485,2.015-4.5,4.5-4.5c1.438,0,2.703,0.686,3.527,1.736 c0.14-2.636,2.302-4.736,4.973-4.736c2.761,0,5,2.239,5,5c0,0.446-0.077,0.87-0.187,1.282c0.642-0.777,1.6-1.282,2.687-1.282 c1.781,0,3.234,1.335,3.455,3.055c0.181-0.022,0.358-0.055,0.545-0.055c2.485,0,4.5,2.015,4.5,4.5s-2.015,4.5-4.5,3.75h-9.5H74v1 h-3V72z"/><path fill="#472b29" d="M77.5,55c3.033,0,5.5,2.467,5.5,5.5c0,0.016,0,0.031,0,0.047C83.602,60.192,84.29,60,85,60 c1.831,0,3.411,1.261,3.858,3.005C88.905,63.002,88.952,63,89,63c3.099,0,5.549,2.834,4.893,6.047 C93.413,71.398,91.204,73,88.804,73l-14.679,0c-0.276,0-0.5-0.224-0.5-0.5c0-0.276,0.224-0.5,0.5-0.5l14.718,0 c1.92,0,3.687-1.282,4.071-3.163C93.439,66.267,91.479,64,89,64c-0.117,0-0.23,0.017-0.343,0.032l-0.141,0.019 c-0.021,0.003-0.041,0.004-0.062,0.004c-0.246,0-0.462-0.185-0.495-0.437C87.768,62.125,86.496,61,85,61 c-0.885,0-1.723,0.401-2.301,1.1c-0.098,0.118-0.241,0.182-0.386,0.182c-0.078,0-0.156-0.018-0.228-0.056 c-0.209-0.107-0.314-0.346-0.254-0.573c0.16-0.6,0.202-1.069,0.147-1.549c-0.24-2.127-1.959-3.909-4.092-4.088 c-2.551-0.215-4.725,1.728-4.859,4.246c-0.011,0.208-0.15,0.387-0.349,0.45c-0.05,0.016-0.101,0.024-0.152,0.024 c-0.15,0-0.296-0.069-0.392-0.192C71.362,59.563,70.221,59,69,59c-2.206,0-4,1.794-4,4c0,0.117,0.017,0.23,0.032,0.343l0.019,0.141 c0.016,0.134-0.022,0.268-0.106,0.373c-0.084,0.105-0.207,0.172-0.34,0.185c-2.352,0.234-4.042,2.429-3.504,4.865 C61.509,70.76,63.275,72,65.173,72l5.952,0c0.276,0,0.5,0.224,0.5,0.5c0,0.276-0.224,0.5-0.5,0.5l-5.938,0 c-2.467,0-4.708-1.704-5.115-4.138c-0.462-2.763,1.344-5.22,3.931-5.74C64.001,63.082,64,63.041,64,63c0-2.757,2.243-5,5-5 c1.176,0,2.293,0.416,3.183,1.164C72.781,56.76,74.945,55,77.5,55L77.5,55z"/><path fill="#472b29" d="M79.25 62.25c1.403 0 2.609.999 2.913 2.341.367-.222.786-.341 1.212-.341 1.202 0 2.198.897 2.353 2.068.203-.045.396-.068.585-.068 1.529 0 2.811 1.2 2.918 2.732.009.138-.094.257-.232.267-.006 0-.012 0-.018 0-.13 0-.24-.101-.249-.232-.089-1.271-1.151-2.268-2.419-2.268-.229 0-.47.042-.738.127-.022.007-.045.01-.067.01-.055 0-.11-.02-.156-.054-.064-.047-.102-.129-.102-.209 0-1.034-.841-1.875-1.875-1.875-.447 0-.885.168-1.231.473-.047.041-.106.063-.165.063-.032 0-.063-.006-.093-.019-.088-.035-.148-.117-.155-.212-.102-1.292-1.191-2.305-2.479-2.305-.208 0-.425.034-.682.107-.023.007-.047.01-.07.01-.109 0-.207-.073-.239-.182-.038-.133.039-.271.172-.309C78.733 62.29 78.994 62.25 79.25 62.25L79.25 62.25zM65.367 63.75c1.326 0 2.508.897 2.874 2.182.038.133-.039.271-.172.309-.023.007-.046.01-.068.01-.109 0-.209-.072-.24-.182-.305-1.071-1.289-1.818-2.393-1.818-.117 0-.23.014-.342.029-.012.002-.023.003-.035.003-.121 0-.229-.092-.246-.217-.019-.137.077-.263.214-.281C65.092 63.766 65.228 63.75 65.367 63.75L65.367 63.75z"/><path fill="#fff" d="M83.405 48H73.5c-.276 0-.5-.224-.5-.5s.224-.5.5-.5h9.905c.276 0 .5.224.5.5S83.682 48 83.405 48zM86.5 48h-1c-.276 0-.5-.224-.5-.5s.224-.5.5-.5h1c.276 0 .5.224.5.5S86.777 48 86.5 48zM91.491 50H82.5c-.276 0-.5-.224-.5-.5s.224-.5.5-.5h8.991c.276 0 .5.224.5.5S91.767 50 91.491 50zM80.5 50h-1c-.276 0-.5-.224-.5-.5s.224-.5.5-.5h1c.276 0 .5.224.5.5S80.777 50 80.5 50zM77.5 50h-2c-.276 0-.5-.224-.5-.5s.224-.5.5-.5h2c.276 0 .5.224.5.5S77.777 50 77.5 50zM83.5 52h-2c-.276 0-.5-.224-.5-.5s.224-.5.5-.5h2c.276 0 .5.224.5.5S83.776 52 83.5 52zM86.5 43c-.177 0-.823 0-1 0-.276 0-.5.224-.5.5 0 .276.224.5.5.5.177 0 .823 0 1 0 .276 0 .5-.224.5-.5C87 43.224 86.776 43 86.5 43zM86.5 45c-.177 0-4.823 0-5 0-.276 0-.5.224-.5.5 0 .276.224.5.5.5.177 0 4.823 0 5 0 .276 0 .5-.224.5-.5C87 45.224 86.776 45 86.5 45zM91.5 47c-.177 0-2.823 0-3 0-.276 0-.5.224-.5.5 0 .276.224.5.5.5.177 0 2.823 0 3 0 .276 0 .5-.224.5-.5C92 47.224 91.776 47 91.5 47zM36 80H26c-.276 0-.5-.224-.5-.5S25.724 79 26 79h10c.276 0 .5.224.5.5S36.276 80 36 80zM40 80h-2c-.276 0-.5-.224-.5-.5S37.724 79 38 79h2c.276 0 .5.224.5.5S40.276 80 40 80zM45 82H35c-.276 0-.5-.224-.5-.5S34.724 81 35 81h10c.276 0 .5.224.5.5S45.277 82 45 82zM33 82h-1c-.276 0-.5-.224-.5-.5S31.724 81 32 81h1c.276 0 .5.224.5.5S33.276 82 33 82zM29.875 82H28c-.276 0-.5-.224-.5-.5S27.724 81 28 81h1.875c.276 0 .5.224.5.5S30.151 82 29.875 82zM39 78h-5c-.276 0-.5-.224-.5-.5S33.724 77 34 77h5c.276 0 .5.224.5.5S39.277 78 39 78zM36 84h-2c-.276 0-.5-.224-.5-.5S33.724 83 34 83h2c.276 0 .5.224.5.5S36.276 84 36 84z"/><path fill="#fdfcef" d="M27,37c0,0-1.817,0-3.75,0s-3.5-1.567-3.5-3.5c0-1.781,1.335-3.234,3.055-3.455 c-0.028-0.179-0.055-0.358-0.055-0.545c0-1.933,1.567-3.5,3.5-3.5c1.032,0,1.95,0.455,2.59,1.165C29.225,25.357,30.828,24,32.75,24 c2.209,0,4,1.791,4,4c0,0.191-0.03,0.374-0.056,0.558C37.122,28.214,37.658,28,38.25,28c1.228,0,2.245,0.887,2.455,2.055 C40.884,30.027,41.063,30,41.25,30c1.933,0,3.5,1.567,3.5,3.5s-1.567,3.5-3.5,3.5S34,37,34,37v1h-7V37z"/><path fill="#472b29" d="M25 32.5c.138 0 .25-.112.25-.25 0-1.223-.995-2.218-2.218-2.218-.034.009-.737-.001-1.244.136-.133.036-.212.173-.176.306.036.134.173.213.306.176.444-.12 1.1-.12 1.113-.118.948 0 1.719.771 1.719 1.718C24.75 32.388 24.862 32.5 25 32.5zM31.5 37A.5.5 0 1 0 31.5 38 .5.5 0 1 0 31.5 37z"/><path fill="#472b29" d="M19.418,35.157C19.923,36.889,21.622,38,23.426,38l3.324,0c0.276,0,0.5-0.224,0.5-0.5 s-0.224-0.5-0.5-0.5l-3.395,0c-1.243,0-2.435-0.701-2.886-1.859c-0.755-1.939,0.536-3.861,2.399-4.1 c0.134-0.018,0.255-0.088,0.336-0.196s0.115-0.244,0.094-0.377C23.275,30.314,23.25,30.16,23.25,30c0-1.654,1.346-3,3-3 c0.85,0,1.638,0.355,2.219,1c0.125,0.139,0.321,0.198,0.5,0.148c0.182-0.049,0.321-0.195,0.36-0.379 C29.67,26.165,31.109,25,32.75,25c1.93,0,3.5,1.57,3.5,3.5c0,0.143-0.021,0.28-0.041,0.418c-0.029,0.203,0.063,0.438,0.242,0.54 c0.179,0.102,0.396,0.118,0.556-0.01C37.372,29.155,37.801,29,38.25,29c0.966,0,1.792,0.691,1.963,1.644 c0.048,0.267,0.296,0.446,0.569,0.405C40.936,31.025,41.09,31,41.25,31c1.97,0,3.503,1.908,2.846,3.974 C43.7,36.218,42.46,37,41.154,37l-7.404,0c-0.276,0-0.5,0.224-0.5,0.5s0.224,0.5,0.5,0.5l7.343,0c1.92,0,3.687-1.282,4.071-3.163 C45.689,32.267,43.729,30,41.25,30c-0.059,0-0.116,0.002-0.174,0.006C40.662,28.82,39.539,28,38.25,28 c-0.349,0-0.689,0.061-1.011,0.18C37.074,25.847,35.124,24,32.75,24c-1.831,0-3.466,1.127-4.153,2.774 C27.917,26.276,27.095,26,26.25,26c-2.206,0-4,1.794-4,4c0,0.048,0.001,0.095,0.004,0.142 C20.152,30.682,18.75,32.869,19.418,35.157z"/><path fill="#472b29" d="M28.75,37c0.159,0,0.841,0,1,0c0.276,0,0.5,0.224,0.5,0.5c0,0.276-0.224,0.5-0.5,0.5 c-0.159,0-0.841,0-1,0c-0.276,0-0.5-0.224-0.5-0.5C28.25,37.224,28.474,37,28.75,37z"/><path fill="#a3a3cd" d="M63.407,46.474c-0.423,0-0.845-0.027-1.26-0.08c-0.056-1.15-0.708-2.097-1.774-2.548l-0.131-0.056 H60.22c-0.295-0.104-0.602-0.156-0.913-0.156c-0.704,0-1.386,0.268-1.944,0.761c-0.656-0.508-1.241-1.091-1.747-1.739 c1.016-1.15,0.86-2.292,0.53-3.07c-0.461-1.07-1.33-1.667-2.524-1.738c-0.107-0.816-0.109-1.644-0.005-2.463 c1.241-0.067,2.13-0.692,2.581-1.819c0.3-0.778,0.418-1.903-0.596-3.014c0.505-0.656,1.088-1.242,1.737-1.749 c0.589,0.547,1.239,0.826,1.936,0.826c0.379,0,0.771-0.085,1.165-0.252c0.784-0.326,1.696-1.039,1.753-2.591 c0.399-0.05,0.808-0.075,1.215-0.075c0.412,0,0.83,0.025,1.248,0.078c0.06,1.685,1.092,2.395,1.98,2.693 c0.312,0.104,0.624,0.157,0.928,0.157c0.709,0,1.363-0.278,1.95-0.827c0.649,0.504,1.229,1.089,1.734,1.747 c-1.062,1.144-0.921,2.304-0.596,3.098c0.462,1.113,1.354,1.72,2.588,1.766c0.087,0.621,0.077,1.821-0.018,2.463 c-1.588,0.079-2.294,1.024-2.607,1.822c-0.299,0.762-0.422,1.877,0.571,2.996c-0.512,0.648-1.101,1.229-1.756,1.729 c-0.59-0.523-1.234-0.792-1.915-0.792c-0.441,0-0.896,0.115-1.353,0.342c-0.961,0.488-1.479,1.301-1.547,2.419 C64.213,46.449,63.807,46.474,63.407,46.474z M63.41,34.518c-1.142,0-2.07,0.929-2.07,2.07s0.929,2.07,2.07,2.07 s2.07-0.929,2.07-2.07S64.552,34.518,63.41,34.518z"/><path fill="#472b29" d="M63.408,27.409c0.202,0,0.405,0.007,0.612,0.021c0.232,1.319,1.058,2.266,2.393,2.714 c0.384,0.129,0.771,0.194,1.151,0.194c0.517,0,1.218-0.124,1.943-0.625c0.298,0.262,0.579,0.546,0.842,0.849 c-0.702,1.015-0.828,2.18-0.343,3.365c0.485,1.168,1.388,1.904,2.585,2.125c0.015,0.377,0.012,0.827-0.009,1.203 c-1.232,0.235-2.147,0.994-2.62,2.196c-0.44,1.125-0.322,2.242,0.328,3.229c-0.271,0.305-0.562,0.592-0.872,0.858 c-0.594-0.398-1.231-0.599-1.904-0.599c-0.55,0-1.11,0.139-1.675,0.42c-0.736,0.374-1.583,1.084-1.848,2.395 c-0.195,0.012-0.391,0.018-0.584,0.018c-0.215,0-0.43-0.008-0.643-0.022c-0.246-1.142-1.01-2.081-2.12-2.551l-0.262-0.111h-0.053 c-0.333-0.104-0.677-0.157-1.026-0.157c-0.684,0-1.347,0.2-1.926,0.571c-0.31-0.27-0.601-0.559-0.871-0.866 c0.668-1.012,0.771-2.167,0.278-3.335c-0.484-1.124-1.364-1.841-2.525-2.078c-0.028-0.403-0.029-0.808-0.002-1.218 c1.208-0.239,2.112-0.996,2.593-2.199c0.442-1.145,0.312-2.272-0.354-3.25c0.262-0.301,0.544-0.585,0.848-0.853 c0.595,0.413,1.24,0.621,1.927,0.621c0.473,0,0.957-0.103,1.429-0.303c1.173-0.488,1.904-1.392,2.122-2.596 C63.02,27.416,63.214,27.409,63.408,27.409 M63.41,39.358c1.527,0,2.77-1.243,2.77-2.77c0-1.527-1.243-2.77-2.77-2.77 s-2.77,1.243-2.77,2.77C60.64,38.115,61.883,39.358,63.41,39.358 M63.408,26.009c-0.56,0-1.116,0.045-1.665,0.134 c-0.152,0.026-0.258,0.159-0.251,0.311c0.053,1.138-0.384,1.886-1.324,2.277c-0.309,0.131-0.606,0.196-0.892,0.196 c-0.598,0-1.152-0.285-1.676-0.858c-0.061-0.064-0.143-0.098-0.224-0.098c-0.061,0-0.122,0.019-0.173,0.059 c-0.913,0.662-1.714,1.469-2.369,2.383c-0.086,0.119-0.073,0.291,0.04,0.397c0.814,0.755,1.032,1.569,0.675,2.495 c-0.371,0.927-1.076,1.385-2.156,1.385c-0.038,0-0.076-0.001-0.115-0.002c-0.004,0-0.008,0-0.013,0 c-0.147,0-0.272,0.11-0.292,0.258c-0.179,1.099-0.179,2.224,0.007,3.342c0.026,0.146,0.152,0.251,0.298,0.251 c0.032-0.001,0.063-0.001,0.094-0.001c1.059,0,1.75,0.437,2.13,1.318c0.397,0.94,0.192,1.774-0.616,2.548 c-0.106,0.099-0.126,0.271-0.04,0.391c0.662,0.913,1.463,1.708,2.369,2.363c0.013,0.013,0.033,0.02,0.053,0.026 c0.035,0.016,0.074,0.023,0.114,0.023c0.079,0,0.162-0.029,0.224-0.082c0.026-0.02,0.046-0.04,0.06-0.053 c0.465-0.483,1.051-0.739,1.641-0.739c0.259,0,0.518,0.049,0.768,0.15c0.007,0,0.02,0.007,0.026,0.007 c0.86,0.364,1.363,1.152,1.35,2.111c0,0.179,0.066,0.404,0.397,0.457c0.518,0.078,1.039,0.116,1.561,0.116 c0.498,0,0.996-0.035,1.491-0.103c0.04-0.013,0.086-0.02,0.126-0.026l0.04-0.007c0.139-0.026,0.245-0.159,0.245-0.305 c-0.02-1.026,0.357-1.714,1.165-2.125c0.359-0.178,0.706-0.268,1.041-0.268c0.585,0,1.136,0.273,1.666,0.824 c0.059,0.059,0.137,0.09,0.216,0.09c0.061,0,0.123-0.019,0.175-0.056c0.92-0.655,1.721-1.449,2.383-2.35 c0.086-0.119,0.073-0.291-0.04-0.397c-0.794-0.761-1.006-1.575-0.649-2.489c0.367-0.933,1.084-1.384,2.176-1.384 c0.031,0,0.063,0,0.094,0.001c0.005,0,0.009,0,0.014,0c0.133,0,0.246-0.091,0.284-0.212c0.212-0.695,0.225-2.819,0.013-3.442 c-0.038-0.121-0.157-0.206-0.284-0.206c-0.005,0-0.009,0-0.014,0c-0.054,0.002-0.106,0.003-0.158,0.003 c-1.031,0-1.72-0.439-2.092-1.334c-0.39-0.953-0.172-1.787,0.675-2.568c0.113-0.106,0.132-0.278,0.046-0.397 c-0.662-0.927-1.463-1.734-2.376-2.389c-0.053-0.039-0.115-0.058-0.175-0.058c-0.083,0-0.165,0.036-0.222,0.104 c-0.51,0.568-1.074,0.856-1.684,0.856c-0.229,0-0.464-0.04-0.705-0.121c-1.066-0.357-1.555-1.125-1.502-2.363 c0.007-0.159-0.106-0.291-0.258-0.311C64.532,26.054,63.968,26.009,63.408,26.009L63.408,26.009z M63.41,37.958 c-0.758,0-1.37-0.612-1.37-1.37s0.612-1.37,1.37-1.37c0.758,0,1.37,0.612,1.37,1.37S64.168,37.958,63.41,37.958L63.41,37.958z"/><path fill="#7777ab" d="M63.411,31.609c-2.744,0-4.979,2.234-4.979,4.979s2.234,4.979,4.979,4.979 c2.744,0,4.979-2.234,4.979-4.979c0-1.03-0.315-1.988-0.853-2.783c-0.205-0.303-0.443-0.583-0.709-0.834 c-0.32-0.303-0.681-0.564-1.072-0.774c-0.353-0.189-0.731-0.337-1.127-0.437C64.238,31.661,63.831,31.609,63.411,31.609z M63.411,34.297c1.26,0,2.291,1.031,2.291,2.291s-1.031,2.291-2.291,2.291c-1.26,0-2.291-1.031-2.291-2.291 S62.151,34.297,63.411,34.297z"/><path fill="#a3a3cd" d="M38.671,72.179c-1.334-0.33-2.683-0.878-3.947-1.621c0.662-1.701,0.375-3.169-0.852-4.372 c-0.771-0.744-1.646-1.12-2.604-1.12c-0.545,0-1.125,0.124-1.727,0.369c-0.744-1.237-1.304-2.563-1.656-3.932 c1.718-0.74,2.563-2,2.523-3.752c-0.04-1.689-0.905-2.887-2.572-3.563c0.341-1.399,0.879-2.726,1.604-3.963 c0.623,0.259,1.22,0.39,1.779,0.39c0.994,0,1.891-0.402,2.663-1.195c1.215-1.229,1.458-2.716,0.724-4.416 c1.222-0.74,2.545-1.295,3.944-1.658c0.706,1.73,1.932,2.611,3.642,2.611c0.121,0,0.244-0.005,0.371-0.014 c1.575-0.119,2.729-1.022,3.353-2.616c1.357,0.338,2.697,0.89,3.949,1.638c-0.723,1.732-0.461,3.228,0.778,4.451 c0.773,0.764,1.657,1.15,2.627,1.15c0.565,0,1.167-0.135,1.792-0.399c0.528,0.764,1.438,2.971,1.621,3.947 c-1.73,0.739-2.586,2.001-2.554,3.756c0.04,1.665,0.893,2.862,2.536,3.565c-0.349,1.38-0.899,2.704-1.639,3.936 c-0.6-0.233-1.178-0.353-1.718-0.353c-1.096,0-2.06,0.478-2.865,1.419c-1,1.159-1.19,2.531-0.565,4.079 c-1.263,0.749-2.583,1.294-3.961,1.645c-0.62-1.563-1.996-2.509-3.659-2.509h-0.165l-0.026,0.011 C40.562,69.735,39.276,70.686,38.671,72.179z M42.252,54.29c-1.906,0-3.457,1.551-3.457,3.457s1.551,3.457,3.457,3.457 s3.457-1.551,3.457-3.457S44.158,54.29,42.252,54.29z"/><path fill="#472b29" d="M46.3,44.163c0.934,0.274,1.838,0.647,2.705,1.118c-0.679,2.191,0.213,3.712,1.146,4.634 c0.909,0.897,1.958,1.352,3.118,1.352c0.478,0,0.974-0.08,1.486-0.242c0.374,0.713,0.865,1.889,1.11,2.705 c-2.034,1.096-2.461,2.828-2.437,4.161c0.03,1.244,0.49,2.865,2.407,3.918c-0.28,0.944-0.66,1.854-1.132,2.717 c-0.481-0.137-0.948-0.206-1.396-0.206c-1.31,0-2.453,0.56-3.392,1.659c-0.754,0.874-1.464,2.287-0.892,4.222 c-0.866,0.469-1.777,0.847-2.722,1.129c-0.835-1.481-2.334-2.377-4.045-2.377l-0.376,0.007l-0.034,0.017 c-1.506,0.133-2.804,1.006-3.555,2.367c-0.942-0.274-1.855-0.647-2.722-1.111c0.609-2.148-0.287-3.641-1.217-4.553 c-0.901-0.872-1.94-1.314-3.087-1.314c-0.455,0-0.927,0.072-1.409,0.215c-0.477-0.868-0.858-1.771-1.141-2.704 c2.005-1.098,2.421-2.821,2.391-4.143c-0.03-1.269-0.499-2.911-2.446-3.934c0.269-0.939,0.637-1.848,1.099-2.715 c0.5,0.153,0.988,0.23,1.459,0.23c1.19,0,2.255-0.473,3.158-1.4c0.917-0.929,1.786-2.451,1.093-4.603 c0.851-0.468,1.752-0.846,2.696-1.132c1.061,2.023,2.737,2.476,4.025,2.476c0.137,0,0.277-0.005,0.427-0.016 C44.242,46.518,45.52,45.657,46.3,44.163 M42.252,61.904c2.292,0,4.157-1.865,4.157-4.157s-1.865-4.157-4.157-4.157 s-4.157,1.865-4.157,4.157S39.96,61.904,42.252,61.904 M45.744,42.585c-0.184,0-0.353,0.117-0.411,0.302 c-0.51,1.461-1.454,2.254-2.819,2.357c-0.11,0.008-0.217,0.012-0.322,0.012c-1.477,0-2.477-0.773-3.069-2.369 c-0.069-0.178-0.234-0.289-0.414-0.289c-0.036,0-0.073,0.004-0.109,0.014c-1.64,0.4-3.17,1.048-4.556,1.916 c-0.193,0.117-0.262,0.358-0.165,0.565c0.717,1.509,0.558,2.771-0.496,3.839c-0.641,0.658-1.358,0.984-2.162,0.984 c-0.527,0-1.092-0.14-1.698-0.418c-0.061-0.028-0.124-0.042-0.187-0.042c-0.151,0-0.295,0.078-0.378,0.214 c-0.862,1.42-1.489,2.964-1.854,4.576c-0.055,0.214,0.062,0.441,0.276,0.517c1.537,0.558,2.295,1.544,2.329,3.005 c0.034,1.523-0.71,2.557-2.288,3.17c-0.207,0.076-0.324,0.303-0.269,0.517c0.386,1.599,1.034,3.122,1.909,4.535 c0.089,0.133,0.234,0.21,0.383,0.21c0.059,0,0.119-0.012,0.176-0.038c0.589-0.264,1.137-0.396,1.649-0.396 c0.782,0,1.481,0.308,2.114,0.92c1.068,1.048,1.268,2.288,0.613,3.804c-0.09,0.2-0.014,0.434,0.172,0.551 c1.42,0.862,2.95,1.489,4.556,1.861c0.028,0.007,0.055,0.007,0.083,0.007c0.172,0,0.352-0.117,0.427-0.276 c0.028-0.041,0.041-0.076,0.055-0.11c0.503-1.323,1.627-2.15,2.929-2.164c0.014-0.007,0.028-0.007,0.041-0.007 c1.378,0,2.502,0.786,3.032,2.095c0.086,0.2,0.252,0.424,0.577,0.424c0.067,0,0.141-0.01,0.222-0.031 c1.461-0.372,2.853-0.951,4.142-1.716c0.055-0.034,0.11-0.076,0.159-0.103l0.048-0.034c0.179-0.117,0.248-0.352,0.165-0.551 c-0.613-1.378-0.496-2.536,0.372-3.542c0.671-0.785,1.442-1.173,2.332-1.173c0.51,0,1.059,0.127,1.651,0.381 c0.054,0.023,0.111,0.033,0.168,0.033c0.151,0,0.298-0.077,0.384-0.213c0.875-1.413,1.509-2.943,1.888-4.542 c0.048-0.214-0.062-0.434-0.269-0.51c-1.516-0.586-2.267-1.571-2.302-3.012c-0.028-1.516,0.724-2.557,2.302-3.17 c0.186-0.069,0.296-0.262,0.276-0.455c-0.103-1.068-1.303-3.956-1.937-4.68c-0.086-0.095-0.208-0.146-0.33-0.146 c-0.064,0-0.128,0.014-0.187,0.042c-0.6,0.278-1.16,0.418-1.684,0.418c-0.787,0-1.493-0.315-2.135-0.948 c-1.075-1.061-1.247-2.329-0.544-3.866c0.096-0.207,0.028-0.448-0.165-0.565c-1.427-0.882-2.964-1.516-4.576-1.888 C45.814,42.589,45.779,42.585,45.744,42.585L45.744,42.585z M42.252,60.504c-1.523,0-2.757-1.234-2.757-2.757 c0-1.523,1.234-2.757,2.757-2.757s2.757,1.234,2.757,2.757C45.009,59.27,43.775,60.504,42.252,60.504L42.252,60.504z"/><path fill="#7777ab" d="M42.252,49.034c-4.804,0-8.713,3.908-8.713,8.713s3.908,8.713,8.713,8.713s8.713-3.908,8.713-8.713 S47.056,49.034,42.252,49.034z M42.252,63.348c-3.087,0-5.601-2.514-5.601-5.601s2.514-5.601,5.601-5.601s5.601,2.514,5.601,5.601 S45.338,63.348,42.252,63.348z"/><path fill="#472b29" d="M42.75,66.695c-0.132,0-0.242-0.103-0.25-0.235c-0.008-0.139,0.098-0.257,0.235-0.265 c1.617-0.092,3.165-0.644,4.479-1.597c0.11-0.081,0.267-0.057,0.349,0.056c0.081,0.111,0.057,0.268-0.056,0.349 c-1.391,1.01-3.03,1.595-4.742,1.692C42.76,66.695,42.755,66.695,42.75,66.695z M41.467,66.675c-0.007,0-0.015,0-0.022-0.001 c-3.885-0.35-7.074-3.142-7.936-6.947c-0.03-0.135,0.055-0.269,0.188-0.3c0.145-0.029,0.27,0.055,0.3,0.189 c0.813,3.594,3.824,6.229,7.492,6.56c0.138,0.013,0.239,0.134,0.227,0.271C41.704,66.577,41.595,66.675,41.467,66.675z M48.583,63.977c-0.062,0-0.123-0.022-0.172-0.068c-0.101-0.095-0.104-0.253-0.01-0.354c0.524-0.555,0.974-1.18,1.333-1.856 c0.064-0.123,0.218-0.166,0.338-0.104c0.122,0.064,0.168,0.216,0.104,0.338c-0.381,0.717-0.855,1.378-1.411,1.966 C48.716,63.95,48.649,63.977,48.583,63.977z M42.252,63.598c-3.227,0-5.852-2.625-5.852-5.851c0-3.227,2.625-5.852,5.852-5.852 c3.226,0,5.851,2.625,5.851,5.852C48.103,60.973,45.478,63.598,42.252,63.598z M42.252,52.396c-2.951,0-5.352,2.4-5.352,5.352 c0,2.95,2.4,5.351,5.352,5.351c2.95,0,5.351-2.4,5.351-5.351C47.603,54.796,45.202,52.396,42.252,52.396z M50.581,60.556 c-0.024,0-0.049-0.004-0.073-0.011c-0.132-0.041-0.206-0.181-0.166-0.313c0.247-0.802,0.372-1.639,0.372-2.485 c0-2.992-1.609-5.792-4.199-7.309c-0.119-0.069-0.159-0.223-0.09-0.342c0.07-0.121,0.224-0.16,0.342-0.09 c2.743,1.605,4.447,4.571,4.447,7.74c0,0.896-0.133,1.782-0.394,2.632C50.787,60.486,50.688,60.556,50.581,60.556z M33.539,57.997 c-0.138,0-0.25-0.112-0.25-0.25c0-4.942,4.021-8.963,8.963-8.963c0.574,0,1.151,0.056,1.717,0.165 c0.135,0.026,0.224,0.157,0.197,0.293c-0.026,0.135-0.152,0.23-0.293,0.197c-0.533-0.103-1.079-0.155-1.621-0.155 c-4.666,0-8.463,3.797-8.463,8.463C33.789,57.885,33.677,57.997,33.539,57.997z M45.8,50.04c-0.034,0-0.069-0.007-0.103-0.021 c-0.285-0.129-0.582-0.242-0.881-0.337c-0.131-0.042-0.204-0.183-0.162-0.314s0.182-0.204,0.314-0.162 c0.316,0.101,0.631,0.221,0.934,0.356c0.126,0.057,0.182,0.205,0.126,0.331C45.986,49.985,45.896,50.04,45.8,50.04z"/><path fill="#472b29" d="M50.915 58.285c-.017 0-.034-.002-.052-.005l-3.088-.65c-.135-.029-.222-.161-.193-.297.029-.135.156-.216.297-.193l3.088.65c.135.029.222.161.193.297C51.135 58.204 51.031 58.285 50.915 58.285zM47.563 56.161c-.138 0-.25-.111-.25-.249 0-.139.111-.251.249-.251l3.155-.011h.001c.138 0 .25.111.25.249 0 .139-.111.251-.249.251L47.563 56.161 47.563 56.161zM68.22 37.772c-.024 0-.05-.004-.075-.012l-2.878-.906c-.132-.041-.205-.182-.163-.313.041-.131.178-.205.313-.163l2.878.906c.132.041.205.182.163.313C68.425 37.704 68.326 37.772 68.22 37.772zM61.858 41.558c-.045 0-.091-.012-.131-.037-.118-.072-.154-.227-.082-.344l1.785-2.893c.073-.119.229-.155.344-.082.118.072.154.227.082.344l-1.785 2.893C62.023 41.516 61.942 41.558 61.858 41.558zM59.987 40.22c-.076 0-.151-.035-.2-.101-.083-.111-.06-.268.051-.35l2.461-1.829c.112-.081.268-.059.35.052.083.111.06.268-.051.35l-2.461 1.829C60.092 40.204 60.039 40.22 59.987 40.22zM61.873 35.715c-.117 0-.221-.082-.245-.2l-.662-3.267c-.027-.136.061-.268.195-.295.134-.026.267.061.295.195l.662 3.267c.027.136-.061.268-.195.295C61.906 35.713 61.89 35.715 61.873 35.715zM63.128 34.917c-.008 0-.017 0-.025-.001-.137-.014-.237-.137-.224-.274l.3-2.987c.015-.137.119-.237.274-.224.137.014.237.137.224.274l-.3 2.987C63.363 34.821 63.255 34.917 63.128 34.917zM41.942 52.418c-.018 0-.036-.002-.055-.006-.135-.031-.22-.165-.189-.299l.696-3.078c.03-.134.16-.222.299-.189.135.031.22.165.189.299l-.696 3.078C42.16 52.339 42.057 52.418 41.942 52.418zM38.872 53.383c-.124 0-.231-.092-.248-.217l-.416-3.128c-.018-.137.078-.263.215-.281.148-.014.263.078.281.215L39.12 53.1c.018.137-.078.263-.215.281C38.894 53.382 38.883 53.383 38.872 53.383zM40.38 52.668c-.001 0-.001 0-.002 0-.138-.001-.249-.113-.248-.252l.022-3.155c.001-.138.112-.248.25-.248.001 0 .001 0 .002 0 .138.001.249.113.248.252L40.63 52.42C40.629 52.558 40.518 52.668 40.38 52.668zM46.728 54.594c-.127 0-.235-.096-.249-.224-.014-.138.086-.261.223-.275l3.139-.33c.142-.014.261.086.275.223.014.138-.086.261-.223.275l-3.139.33C46.745 54.594 46.736 54.594 46.728 54.594zM39.819 66.306c-.041 0-.083-.01-.121-.031-.121-.066-.164-.219-.098-.34l1.527-2.761c.067-.12.221-.165.34-.098.121.066.164.219.098.34l-1.527 2.761C39.992 66.259 39.907 66.306 39.819 66.306zM37.49 65.145c-.078 0-.155-.037-.204-.105-.08-.113-.053-.27.06-.349l2.577-1.82c.113-.08.27-.052.349.06.08.113.053.27-.06.349l-2.577 1.82C37.591 65.13 37.54 65.145 37.49 65.145zM35.791 63.763c-.092 0-.181-.051-.225-.14-.061-.123-.01-.273.114-.335l2.829-1.397c.122-.061.273-.011.335.114.061.123.01.273-.114.335l-2.829 1.397C35.866 63.755 35.828 63.763 35.791 63.763z"/><g><path fill="#472b29" d="M34.691,62.22c-0.104,0-0.202-0.066-0.237-0.171c-0.044-0.131,0.027-0.272,0.158-0.316l2.994-0.998 c0.13-0.042,0.272,0.027,0.316,0.158s-0.027,0.272-0.158,0.316l-2.994,0.998C34.744,62.216,34.718,62.22,34.691,62.22z"/></g><g><path fill="#472b29" d="M63.411,41.816c-2.884,0-5.229-2.346-5.229-5.229c0-0.138,0.112-0.25,0.25-0.25 s0.25,0.112,0.25,0.25c0,2.607,2.122,4.729,4.729,4.729c0.745,0,1.458-0.169,2.121-0.504c0.123-0.059,0.273-0.013,0.336,0.111 c0.062,0.123,0.013,0.273-0.111,0.336C65.034,41.624,64.224,41.816,63.411,41.816z M66.819,40.463 c-0.066,0-0.133-0.026-0.183-0.079c-0.094-0.101-0.089-0.259,0.012-0.354c0.947-0.891,1.491-2.146,1.491-3.442 c0-1.148-0.42-2.258-1.182-3.123c-0.092-0.104-0.081-0.262,0.022-0.353c0.102-0.092,0.261-0.082,0.353,0.022 c0.843,0.956,1.307,2.183,1.307,3.453c0,1.434-0.601,2.821-1.649,3.808C66.942,40.44,66.881,40.463,66.819,40.463z M63.411,39.128 c-1.401,0-2.541-1.14-2.541-2.54c0-1.401,1.14-2.541,2.541-2.541c1.4,0,2.54,1.14,2.54,2.541 C65.951,37.988,64.812,39.128,63.411,39.128z M63.411,34.547c-1.125,0-2.041,0.916-2.041,2.041s0.916,2.04,2.041,2.04 s2.04-0.915,2.04-2.04S64.536,34.547,63.411,34.547z M59.173,34.228c-0.045,0-0.091-0.012-0.132-0.037 c-0.117-0.073-0.153-0.227-0.081-0.345c0.963-1.557,2.627-2.486,4.451-2.486c0.437,0,0.871,0.055,1.293,0.162 c0.134,0.034,0.215,0.17,0.181,0.304c-0.033,0.134-0.171,0.213-0.304,0.181c-0.382-0.098-0.775-0.146-1.17-0.146 c-1.649,0-3.154,0.841-4.025,2.25C59.338,34.186,59.257,34.228,59.173,34.228z M66.462,32.907c-0.054,0-0.107-0.018-0.153-0.053 c-0.259-0.201-0.535-0.374-0.822-0.515c-0.124-0.061-0.176-0.21-0.115-0.334c0.06-0.125,0.21-0.178,0.334-0.115 c0.318,0.155,0.625,0.348,0.91,0.569c0.109,0.085,0.129,0.242,0.044,0.351C66.61,32.874,66.536,32.907,66.462,32.907z"/></g></svg>